<svg width="32" height="32" viewBox="0 0 32 32" fill="none" xmlns="http://www.w3.org/2000/svg">
  <path d="M12.1667 28.1333L0.933317 16.9333C0.799984 16.8 0.705761 16.6556 0.65065 16.5C0.59465 16.3444 0.56665 16.1778 0.56665 16C0.56665 15.8222 0.59465 15.6556 0.65065 15.5C0.705761 15.3444 0.799984 15.2 0.933317 15.0667L12.1667 3.83334C12.4778 3.52222 12.8667 3.36667 13.3333 3.36667C13.8 3.36667 14.2 3.53334 14.5333 3.86667C14.8667 4.2 15.0333 4.58889 15.0333 5.03334C15.0333 5.47778 14.8667 5.86667 14.5333 6.2L4.73332 16L14.5333 25.8C14.8444 26.1111 15 26.4942 15 26.9493C15 27.4053 14.8333 27.8 14.5 28.1333C14.1667 28.4667 13.7778 28.6333 13.3333 28.6333C12.8889 28.6333 12.5 28.4667 12.1667 28.1333V28.1333Z" fill="black" />
</svg>
  