<svg
  width="32"
  height="32"
  viewBox="0 0 32 32"
  fill="none"
  xmlns="http://www.w3.org/2000/svg"
>
  <path
    d="M9.3333 29.3333C8.59997 29.3333 7.97242 29.0724 7.45064 28.5506C6.92797 28.0279 6.66664 27.3999 6.66664 26.6666C6.66664 25.9333 6.92797 25.3053 7.45064 24.7826C7.97242 24.2608 8.59997 23.9999 9.3333 23.9999C10.0666 23.9999 10.6942 24.2608 11.216 24.7826C11.7386 25.3053 12 25.9333 12 26.6666C12 27.3999 11.7386 28.0279 11.216 28.5506C10.6942 29.0724 10.0666 29.3333 9.3333 29.3333ZM22.6666 29.3333C21.9333 29.3333 21.3057 29.0724 20.784 28.5506C20.2613 28.0279 20 27.3999 20 26.6666C20 25.9333 20.2613 25.3053 20.784 24.7826C21.3057 24.2608 21.9333 23.9999 22.6666 23.9999C23.4 23.9999 24.028 24.2608 24.5506 24.7826C25.0724 25.3053 25.3333 25.9333 25.3333 26.6666C25.3333 27.3999 25.0724 28.0279 24.5506 28.5506C24.028 29.0724 23.4 29.3333 22.6666 29.3333ZM8.19997 7.99993L11.4 14.6666H20.7333L24.4 7.99993H8.19997ZM6.9333 5.33326H26.6C27.1111 5.33326 27.5 5.56082 27.7666 6.01593C28.0333 6.47193 28.0444 6.93326 27.8 7.39993L23.0666 15.9333C22.8222 16.3777 22.4942 16.7222 22.0826 16.9666C21.672 17.211 21.2222 17.3333 20.7333 17.3333H10.8L9.3333 19.9999H25.3333V22.6666H9.3333C8.3333 22.6666 7.57775 22.2275 7.06664 21.3493C6.55553 20.4719 6.53331 19.5999 6.99997 18.7333L8.79997 15.4666L3.99997 5.33326H1.33331V2.6666H5.66664L6.9333 5.33326ZM11.4 14.6666H20.7333H11.4Z"
    fill="black"
  />
</svg>