<svg width="32" height="32" viewBox="0 0 32 32" fill="none" xmlns="http://www.w3.org/2000/svg">
  <path d="M16 22.6667C16.3777 22.6667 16.6946 22.5387 16.9506 22.2827C17.2057 22.0276 17.3333 21.7111 17.3333 21.3333C17.3333 20.9556 17.2057 20.6387 16.9506 20.3827C16.6946 20.1276 16.3777 20 16 20C15.6222 20 15.3057 20.1276 15.0506 20.3827C14.7946 20.6387 14.6666 20.9556 14.6666 21.3333C14.6666 21.7111 14.7946 22.0276 15.0506 22.2827C15.3057 22.5387 15.6222 22.6667 16 22.6667ZM16 17.3333C16.3777 17.3333 16.6946 17.2053 16.9506 16.9493C17.2057 16.6942 17.3333 16.3778 17.3333 16V10.6667C17.3333 10.2889 17.2057 9.97201 16.9506 9.71601C16.6946 9.46089 16.3777 9.33334 16 9.33334C15.6222 9.33334 15.3057 9.46089 15.0506 9.71601C14.7946 9.97201 14.6666 10.2889 14.6666 10.6667V16C14.6666 16.3778 14.7946 16.6942 15.0506 16.9493C15.3057 17.2053 15.6222 17.3333 16 17.3333ZM16 29.3333C14.1555 29.3333 12.4222 28.9831 10.8 28.2827C9.17774 27.5831 7.76663 26.6333 6.56663 25.4333C5.36663 24.2333 4.41685 22.8222 3.71729 21.2C3.01685 19.5778 2.66663 17.8444 2.66663 16C2.66663 14.1556 3.01685 12.4222 3.71729 10.8C4.41685 9.17778 5.36663 7.76667 6.56663 6.56667C7.76663 5.36667 9.17774 4.41645 10.8 3.71601C12.4222 3.01645 14.1555 2.66667 16 2.66667C17.8444 2.66667 19.5777 3.01645 21.2 3.71601C22.8222 4.41645 24.2333 5.36667 25.4333 6.56667C26.6333 7.76667 27.5831 9.17778 28.2826 10.8C28.9831 12.4222 29.3333 14.1556 29.3333 16C29.3333 17.8444 28.9831 19.5778 28.2826 21.2C27.5831 22.8222 26.6333 24.2333 25.4333 25.4333C24.2333 26.6333 22.8222 27.5831 21.2 28.2827C19.5777 28.9831 17.8444 29.3333 16 29.3333ZM16 26.6667C18.9777 26.6667 21.5 25.6333 23.5666 23.5667C25.6333 21.5 26.6666 18.9778 26.6666 16C26.6666 13.0222 25.6333 10.5 23.5666 8.43334C21.5 6.36667 18.9777 5.33334 16 5.33334C13.0222 5.33334 10.5 6.36667 8.43329 8.43334C6.36663 10.5 5.33329 13.0222 5.33329 16C5.33329 18.9778 6.36663 21.5 8.43329 23.5667C10.5 25.6333 13.0222 26.6667 16 26.6667Z" fill="#d9422e" />
</svg>
  