<svg width="32" height="32" viewBox="0 0 32 32" fill="none" xmlns="http://www.w3.org/2000/svg">
  <path d="M16 22.6667C16.3777 22.6667 16.6946 22.5387 16.9506 22.2827C17.2057 22.0276 17.3333 21.7111 17.3333 21.3333V15.9667C17.3333 15.5889 17.2057 15.2778 16.9506 15.0333C16.6946 14.7889 16.3777 14.6667 16 14.6667C15.6222 14.6667 15.3057 14.7942 15.0506 15.0493C14.7946 15.3053 14.6666 15.6222 14.6666 16V21.3667C14.6666 21.7444 14.7946 22.0556 15.0506 22.3C15.3057 22.5445 15.6222 22.6667 16 22.6667V22.6667ZM16 12C16.3777 12 16.6946 11.872 16.9506 11.616C17.2057 11.3609 17.3333 11.0444 17.3333 10.6667C17.3333 10.2889 17.2057 9.97201 16.9506 9.71601C16.6946 9.46089 16.3777 9.33334 16 9.33334C15.6222 9.33334 15.3057 9.46089 15.0506 9.71601C14.7946 9.97201 14.6666 10.2889 14.6666 10.6667C14.6666 11.0444 14.7946 11.3609 15.0506 11.616C15.3057 11.872 15.6222 12 16 12ZM16 29.3333C14.1555 29.3333 12.4222 28.9831 10.8 28.2827C9.17774 27.5831 7.76663 26.6333 6.56663 25.4333C5.36663 24.2333 4.41685 22.8222 3.71729 21.2C3.01685 19.5778 2.66663 17.8444 2.66663 16C2.66663 14.1556 3.01685 12.4222 3.71729 10.8C4.41685 9.17778 5.36663 7.76667 6.56663 6.56667C7.76663 5.36667 9.17774 4.41645 10.8 3.71601C12.4222 3.01645 14.1555 2.66667 16 2.66667C17.8444 2.66667 19.5777 3.01645 21.2 3.71601C22.8222 4.41645 24.2333 5.36667 25.4333 6.56667C26.6333 7.76667 27.5831 9.17778 28.2826 10.8C28.9831 12.4222 29.3333 14.1556 29.3333 16C29.3333 17.8444 28.9831 19.5778 28.2826 21.2C27.5831 22.8222 26.6333 24.2333 25.4333 25.4333C24.2333 26.6333 22.8222 27.5831 21.2 28.2827C19.5777 28.9831 17.8444 29.3333 16 29.3333ZM16 26.6667C18.9555 26.6667 21.4724 25.628 23.5506 23.5507C25.628 21.4725 26.6666 18.9556 26.6666 16C26.6666 13.0444 25.628 10.5276 23.5506 8.44934C21.4724 6.37201 18.9555 5.33334 16 5.33334C13.0444 5.33334 10.528 6.37201 8.45063 8.44934C6.3724 10.5276 5.33329 13.0444 5.33329 16C5.33329 18.9556 6.3724 21.4725 8.45063 23.5507C10.528 25.628 13.0444 26.6667 16 26.6667Z" fill="#1974f2" />
</svg>
  