<svg width="32" height="32" viewBox="0 0 32 32" fill="none" xmlns="http://www.w3.org/2000/svg">
  <path d="M18.772 2C18.9837 2.00001 19.19 2.06721 19.3611 2.19193C19.5321 2.31664 19.6592 2.49244 19.724 2.694L20.824 6.112C21.286 6.338 21.728 6.592 22.15 6.878L25.662 6.122C25.8691 6.07779 26.0848 6.10045 26.2782 6.18671C26.4716 6.27297 26.6326 6.41838 26.738 6.602L29.51 11.4C29.6159 11.5835 29.6607 11.7959 29.638 12.0065C29.6154 12.2172 29.5264 12.4152 29.384 12.572L26.974 15.232C27.0091 15.7421 27.0091 16.2539 26.974 16.764L29.384 19.428C29.5264 19.5848 29.6154 19.7828 29.638 19.9935C29.6607 20.2041 29.6159 20.4165 29.51 20.6L26.738 25.4C26.6323 25.5833 26.4712 25.7283 26.2778 25.8141C26.0845 25.9 25.8689 25.9224 25.662 25.878L22.15 25.122C21.73 25.406 21.286 25.662 20.826 25.888L19.724 29.306C19.6592 29.5076 19.5321 29.6834 19.3611 29.8081C19.19 29.9328 18.9837 30 18.772 30H13.228C13.0163 30 12.81 29.9328 12.639 29.8081C12.4679 29.6834 12.3408 29.5076 12.276 29.306L11.178 25.89C10.7172 25.6647 10.2728 25.4074 9.848 25.12L6.338 25.878C6.13093 25.9222 5.91517 25.8996 5.72181 25.8133C5.52844 25.727 5.36744 25.5816 5.262 25.398L2.49 20.6C2.38415 20.4165 2.33932 20.2041 2.36196 19.9935C2.38461 19.7828 2.47356 19.5848 2.616 19.428L5.026 16.764C4.99109 16.2553 4.99109 15.7447 5.026 15.236L2.616 12.572C2.47356 12.4152 2.38461 12.2172 2.36196 12.0065C2.33932 11.7959 2.38415 11.5835 2.49 11.4L5.262 6.6C5.36773 6.41675 5.52885 6.27175 5.7222 6.18586C5.91554 6.09997 6.13115 6.07761 6.338 6.122L9.848 6.88C10.272 6.594 10.716 6.336 11.178 6.11L12.278 2.694C12.3426 2.49309 12.4691 2.31776 12.6393 2.1931C12.8096 2.06844 13.015 2.00085 13.226 2H18.77H18.772ZM18.04 4H13.96L12.824 7.534L12.058 7.908C11.6814 8.09227 11.3179 8.3021 10.97 8.536L10.262 9.016L6.63 8.232L4.59 11.768L7.08 14.524L7.02 15.372C6.99127 15.7902 6.99127 16.2098 7.02 16.628L7.08 17.476L4.586 20.232L6.628 23.768L10.26 22.986L10.968 23.464C11.3159 23.6979 11.6794 23.9077 12.056 24.092L12.822 24.466L13.96 28H18.044L19.184 24.464L19.948 24.092C20.3242 23.9082 20.687 23.6983 21.034 23.464L21.74 22.986L25.374 23.768L27.414 20.232L24.922 17.476L24.982 16.628C25.0108 16.2092 25.0108 15.7888 24.982 15.37L24.922 14.522L27.416 11.768L25.374 8.232L21.74 9.012L21.034 8.536C20.6871 8.30163 20.3242 8.09178 19.948 7.908L19.184 7.536L18.042 4H18.04ZM16 10C17.5913 10 19.1174 10.6321 20.2426 11.7574C21.3679 12.8826 22 14.4087 22 16C22 17.5913 21.3679 19.1174 20.2426 20.2426C19.1174 21.3679 17.5913 22 16 22C14.4087 22 12.8826 21.3679 11.7574 20.2426C10.6321 19.1174 10 17.5913 10 16C10 14.4087 10.6321 12.8826 11.7574 11.7574C12.8826 10.6321 14.4087 10 16 10V10ZM16 12C14.9391 12 13.9217 12.4214 13.1716 13.1716C12.4214 13.9217 12 14.9391 12 16C12 17.0609 12.4214 18.0783 13.1716 18.8284C13.9217 19.5786 14.9391 20 16 20C17.0609 20 18.0783 19.5786 18.8284 18.8284C19.5786 18.0783 20 17.0609 20 16C20 14.9391 19.5786 13.9217 18.8284 13.1716C18.0783 12.4214 17.0609 12 16 12V12Z" fill="black" />
</svg>
  