<svg width="32" height="32" viewBox="0 0 32 32" fill="none" xmlns="http://www.w3.org/2000/svg">
  <path d="M16 2.66667C8.66669 2.66667 2.66669 8.66667 2.66669 16C2.66669 23.3333 8.66669 29.3333 16 29.3333C23.3334 29.3333 29.3334 23.3333 29.3334 16C29.3334 8.66667 23.3334 2.66667 16 2.66667ZM16 26.6667C10.12 26.6667 5.33335 21.88 5.33335 16C5.33335 10.12 10.12 5.33333 16 5.33333C21.88 5.33333 26.6667 10.12 26.6667 16C26.6667 21.88 21.88 26.6667 16 26.6667ZM22.12 10.1067L13.3334 18.8933L9.88002 15.4533L8.00002 17.3333L13.3334 22.6667L24 12L22.12 10.1067Z" fill="#2C9267" />
</svg>
  
  