<svg width="32" height="32" viewBox="0 0 32 32" fill="none" xmlns="http://www.w3.org/2000/svg">
  <path d="M3.63332 28C3.12221 28 2.74443 27.7778 2.49998 27.3333C2.25554 26.8889 2.25554 26.4444 2.49998 26L14.8333 4.66667C15.0778 4.22222 15.4667 4 16 4C16.5333 4 16.9222 4.22222 17.1667 4.66667L29.5 26C29.7444 26.4444 29.7444 26.8889 29.5 27.3333C29.2555 27.7778 28.8778 28 28.3667 28H3.63332ZM16 13.3333C15.6222 13.3333 15.3058 13.4609 15.0507 13.716C14.7947 13.972 14.6667 14.2889 14.6667 14.6667V18.6667C14.6667 19.0444 14.7947 19.3609 15.0507 19.616C15.3058 19.872 15.6222 20 16 20C16.3778 20 16.6947 19.872 16.9507 19.616C17.2058 19.3609 17.3333 19.0444 17.3333 18.6667V14.6667C17.3333 14.2889 17.2058 13.972 16.9507 13.716C16.6947 13.4609 16.3778 13.3333 16 13.3333ZM16 24C16.3778 24 16.6947 23.872 16.9507 23.616C17.2058 23.3609 17.3333 23.0444 17.3333 22.6667C17.3333 22.2889 17.2058 21.9724 16.9507 21.7173C16.6947 21.4613 16.3778 21.3333 16 21.3333C15.6222 21.3333 15.3058 21.4613 15.0507 21.7173C14.7947 21.9724 14.6667 22.2889 14.6667 22.6667C14.6667 23.0444 14.7947 23.3609 15.0507 23.616C15.3058 23.872 15.6222 24 16 24ZM5.93332 25.3333H26.0667L16 8L5.93332 25.3333Z" fill="#f1c00f" />
</svg>
  